<svg width="100" height="76" viewBox="0 0 100 76" fill="none" xmlns="http://www.w3.org/2000/svg">
<path fill-rule="evenodd" clip-rule="evenodd" d="M48.3251 6.10059C48.2875 6.20059 48.25 18.8006 48.25 34.1006C48.25 49.4006 48.275 62.0006 48.3125 62.1006C48.3625 62.2506 48.675 62.2881 50.125 62.2881H51.875V5.91309C48.7001 5.91309 48.3876 5.95059 48.3251 6.10059ZM41.1875 12.9506C41.15 13.1006 41.1376 17.1631 41.1501 21.9756L41.1875 30.7256H44.6875C44.7375 17.1631 44.725 13.1006 44.6875 12.9381C44.625 12.6756 44.5875 12.6631 42.9375 12.6631C41.3 12.6631 41.25 12.6756 41.1875 12.9506ZM55.5 21.7256V30.7881H59V12.6631H55.5V21.7256ZM33.9375 18.1881C33.9 18.2756 33.8876 21.1381 33.9001 24.5381L33.9375 30.7256H37.5625V18.1006C34.425 18.0381 33.9875 18.0756 33.9375 18.1881ZM61.75 24.4131V30.7881L65.3125 30.7256V18.1006L61.7626 18.0256L61.75 24.4131ZM26.8 22.3256C26.7625 22.4881 26.7501 24.4381 26.7626 26.6756L26.8 30.7381L30.3625 30.8006V22.0506C26.9125 22.0506 26.8625 22.0506 26.8 22.3256ZM68.9251 22.3256C68.8876 22.4881 68.875 24.4381 68.8875 26.6756L68.9251 30.7381H72.4251C72.4876 24.4381 72.4626 22.4881 72.4375 22.3256C72.3625 22.0506 72.3251 22.0506 70.6751 22.0506C69.0376 22.0506 68.9876 22.0506 68.9251 22.3256ZM18.7375 35.1131V38.1756C35.2875 38.1756 37.0626 38.2006 37.4001 38.3381C37.6251 38.4381 37.9125 38.6381 38.05 38.7881C38.25 39.0131 38.3 39.2506 38.3 39.8631C38.3 40.4631 38.25 40.7131 38.05 40.9256C37.9125 41.0756 37.6251 41.2881 37.4001 41.3756C37.0626 41.5131 35.3 41.5506 27.9 41.5381H18.8L18.7375 58.3006H27.6125V46.9256L37.55 46.9131C37.7 47.6506 37.7375 50.2131 37.7375 53.0756V58.3006H46.4875C46.4875 49.5006 46.45 48.2506 46.3 47.3631C46.1875 46.7381 45.9875 45.9756 45.85 45.6756C45.7125 45.3631 45.4625 44.9256 45.3 44.7006C45.125 44.4756 44.7001 44.1631 44.3376 43.9881C43.9751 43.8256 43.6 43.6631 43.4875 43.6256C43.35 43.5756 43.475 43.3756 43.975 42.8381C44.3375 42.4381 44.8 41.7756 45 41.3631C45.2001 40.9506 45.4125 40.2381 45.475 39.8006C45.5375 39.3381 45.55 38.6256 45.4875 38.1756C45.4375 37.7256 45.3 37.1006 45.1875 36.8006C45.0751 36.4881 44.8001 35.9006 44.5751 35.5006C44.3626 35.0881 43.8375 34.4131 43.4125 34.0006C42.9375 33.5131 42.3125 33.0631 41.725 32.7631C41.225 32.5006 40.5 32.2381 40.1125 32.1756C39.6875 32.0881 35.4625 32.0506 29.0875 32.0506H18.7375V35.1131ZM53.4375 32.6131C53.4001 32.7131 53.3625 33.9506 53.3625 35.3631C53.3625 36.7631 53.4 38.0006 53.425 38.1131C53.4875 38.2756 54.6251 38.3006 62.6501 38.3006C71.3501 38.3006 71.8251 38.3131 72.1751 38.5381C72.3876 38.6631 72.6376 38.9631 72.7376 39.1881C72.8376 39.4256 72.9 39.8006 72.8875 40.0506C72.875 40.2881 72.7751 40.6131 72.6501 40.7881C72.5251 40.9506 72.275 41.2006 72.075 41.3506C71.725 41.6131 71.675 41.6131 62.6125 41.6381L53.4875 41.6756L53.55 58.4881C72.1125 58.5506 73.4251 58.5256 74.3001 58.3506C74.8501 58.2381 75.6751 58.0006 76.1126 57.8131C76.5626 57.6381 77.25 57.2756 77.6501 57.0131C78.0376 56.7631 78.7001 56.2006 79.125 55.7631C79.5625 55.3131 80.0751 54.5881 80.3626 54.0506C80.6376 53.5256 80.9376 52.7381 81.0501 52.3006C81.1501 51.8506 81.2376 51.1131 81.2376 50.6756C81.2376 50.2256 81.1501 49.5256 81.0501 49.1131C80.9376 48.7006 80.6875 48.0506 80.475 47.6756C80.275 47.2881 79.9 46.7506 79.6375 46.4756C79.3875 46.2006 78.9001 45.7506 78.5501 45.4881C78.2126 45.2256 77.6501 44.8756 77.3001 44.7006C76.9626 44.5381 76.6626 44.3881 76.6501 44.3756C76.6376 44.3631 77.0625 43.9131 77.5876 43.3506C78.125 42.8006 78.7126 42.0506 78.9001 41.6631C79.0876 41.2881 79.3251 40.6756 79.4251 40.3006C79.5251 39.9131 79.6126 39.2756 79.6126 38.8631C79.6126 38.4506 79.525 37.7756 79.4125 37.3631C79.3 36.9506 79.0501 36.2756 78.8376 35.8631C78.6126 35.4131 78.0876 34.7381 77.5625 34.2131C76.9375 33.5756 76.4251 33.2006 75.8001 32.9006L74.9251 32.4881C54.7376 32.4256 53.5126 32.4381 53.4375 32.6131ZM61.3876 46.9006L65.1501 46.9506C68.7251 46.9881 68.9751 47.0006 69.6751 47.2756C70.0876 47.4256 70.6876 47.7381 70.9876 47.9631C71.3001 48.1881 71.7375 48.6756 71.95 49.0506C72.175 49.4256 72.3876 49.9631 72.4251 50.2381C72.4626 50.5256 72.4126 51.0131 72.3001 51.3881C72.1751 51.8631 71.9501 52.2131 71.5251 52.6506C71.2001 52.9756 70.6251 53.4006 70.2376 53.5756C69.8626 53.7631 69.1876 53.9756 68.7376 54.0381C68.3001 54.1131 66.4501 54.1756 61.3625 54.1756L61.375 50.5381L61.3876 46.9006ZM26.8125 59.7256C26.775 59.8381 26.75 60.3631 26.75 60.9131C26.75 61.4631 26.775 62.0006 26.8125 62.1006C26.8625 62.2631 27.175 62.2881 28.625 62.2881H30.375V59.5381C27.2 59.5381 26.875 59.5756 26.8125 59.7256ZM33.9375 59.7256C33.9 59.8381 33.875 60.3631 33.875 60.9131C33.875 61.4631 33.9 62.0006 33.9375 62.1006C33.9875 62.2631 34.3 62.2881 35.75 62.2881C37.3 62.2881 37.5 62.2631 37.5625 62.0756C37.6 61.9506 37.625 61.4006 37.6125 60.8506C37.6 60.3006 37.5625 59.7881 37.5375 59.7006C37.5125 59.5881 37.0375 59.5381 35.75 59.5381C34.325 59.5381 34 59.5756 33.9375 59.7256ZM41.1875 59.7256C41.15 59.8381 41.125 60.3631 41.125 60.9131C41.125 61.4631 41.15 62.0006 41.1875 62.1006C41.2375 62.2631 41.55 62.2881 42.9375 62.2881C44.3251 62.2881 44.625 62.2631 44.6875 62.1006C44.7125 62.0006 44.75 61.4631 44.75 60.9131C44.75 60.3631 44.7125 59.8381 44.6875 59.7256C44.625 59.5756 44.3251 59.5381 42.9375 59.5381C41.5625 59.5381 41.25 59.5756 41.1875 59.7256ZM55.5 60.9756V62.2881H59V59.6631H55.5V60.9756ZM61.75 60.9756V62.2881C64.9375 62.2881 65.25 62.2631 65.3125 62.1006C65.3376 62.0006 65.375 61.5006 65.375 60.9756C65.375 60.4631 65.3376 59.9631 65.3125 59.8506C65.25 59.7006 64.9375 59.6631 63.5 59.6631H61.75V60.9756ZM68.9375 59.8506C68.9001 59.9631 68.875 60.4631 68.875 60.9756C68.875 61.5006 68.9001 62.0006 68.9375 62.1006C68.9875 62.2631 69.3 62.2881 70.6875 62.2881C72.0751 62.2881 72.375 62.2631 72.4375 62.1006C72.4626 62.0006 72.5 61.5006 72.5 60.9756C72.5 60.4631 72.4626 59.9631 72.4375 59.8506C72.375 59.7006 72.0751 59.6631 70.6875 59.6631C69.3125 59.6631 69 59.7006 68.9375 59.8506ZM21.0625 63.8506C21.025 63.9631 21 64.2381 21 64.4756C21 64.7256 21.025 65.0006 21.0625 65.1006C21.1125 65.2756 24.4375 65.2881 50 65.2881H78.875V63.6631C24.4626 63.6631 21.1375 63.6881 21.0625 63.8506ZM26.8125 67.1006C26.5375 67.2006 26.125 67.4756 25.9 67.7256C25.6 68.0506 25.5 68.2881 25.5 68.6006C25.5 68.8506 25.5875 69.2006 25.6875 69.3881C25.8 69.5756 26.0875 69.8756 26.3375 70.0381C26.7 70.2881 26.975 70.3631 27.675 70.4006C28.4 70.4256 28.65 70.3881 29.1125 70.1506C29.425 69.9881 29.6875 69.8006 29.7125 69.7256C29.7375 69.6631 29.5375 69.5006 29.275 69.3756C28.8375 69.1506 28.7875 69.1506 28.5 69.3381C28.325 69.4506 28 69.5506 27.775 69.5381C27.5375 69.5381 27.2625 69.4381 27.125 69.2881C26.9875 69.1506 26.875 68.8756 26.875 68.6631C26.875 68.4006 26.975 68.2131 27.2125 68.0381C27.4 67.9006 27.65 67.7881 27.775 67.7881C27.9 67.7881 28.175 67.8756 28.4 67.9881C28.775 68.1631 28.85 68.1631 29.2125 67.9881C29.4375 67.8756 29.6 67.7256 29.5875 67.6381C29.5625 67.5506 29.3 67.3506 28.9875 67.2006C28.65 67.0256 28.2125 66.9131 27.875 66.9256C27.5625 66.9256 27.0875 67.0131 26.8125 67.1006ZM30.875 68.6631V70.4131H32.25C32.25 69.5256 32.2876 69.4131 32.4626 69.4256C32.5876 69.4256 32.8376 69.6506 33.0251 69.9256C33.3501 70.3881 33.4125 70.4131 34 70.4131C34.3375 70.4131 34.65 70.3631 34.6875 70.2881C34.7125 70.2256 34.575 69.9381 34.375 69.6631L34 69.1631C34.4875 68.6381 34.625 68.3631 34.625 68.2256C34.625 68.0881 34.5001 67.8131 34.3376 67.6131C34.1876 67.4131 33.8751 67.1756 33.6501 67.0881C33.4126 66.9881 32.75 66.9131 32.0625 66.9131H30.875V68.6631ZM32.25 68.1631C32.2625 67.8131 32.3001 67.7756 32.6501 67.8131C32.8626 67.8381 33.1 67.9506 33.175 68.0756C33.275 68.2506 33.2625 68.3256 33.125 68.4256C33.0125 68.4881 32.7751 68.5381 32.5876 68.5381C32.2876 68.5381 32.25 68.5006 32.25 68.1631ZM35.875 68.6631V70.4131H39.25V69.5381C37.3251 69.5381 37.25 69.5256 37.25 69.2881C37.25 69.0631 37.3251 69.0381 38.0625 69.0381H38.875V68.2881C37.3251 68.2881 37.25 68.2631 37.25 68.0381C37.25 67.8131 37.3251 67.7881 38.1875 67.7881H39.125V66.9131H35.875V68.6631ZM41.25 67.2631C40.8125 67.4881 40.5 67.7506 40.35 68.0381C40.1875 68.3381 40.1376 68.6006 40.1875 68.8506C40.225 69.0631 40.3625 69.3756 40.4875 69.5381C40.6 69.7131 40.9501 69.9756 41.2626 70.1381C41.6376 70.3256 42.0375 70.4131 42.5625 70.4131C43.0875 70.4131 43.4625 70.3381 43.8625 70.1381C44.175 69.9881 44.4376 69.8006 44.4626 69.7256C44.4876 69.6631 44.2626 69.5131 43.9626 69.3881C43.5001 69.2006 43.4 69.2006 43.1875 69.3631C43.05 69.4631 42.7751 69.5506 42.5876 69.5381C42.4001 69.5381 42.1376 69.4881 42 69.4131C41.8625 69.3506 41.6875 69.1506 41.625 68.9756C41.5375 68.7631 41.5376 68.5756 41.6501 68.3506C41.7376 68.1756 41.975 67.9756 42.1875 67.9006C42.475 67.7881 42.6626 67.8006 43.0876 67.9631C43.5626 68.1506 43.6625 68.1506 44 67.9756C44.2001 67.8756 44.3501 67.7256 44.3376 67.6381C44.3126 67.5506 44.05 67.3506 43.7375 67.2006C43.375 67.0131 42.9625 66.9131 42.55 66.9131C42.1 66.9131 41.7125 67.0131 41.25 67.2631ZM45.625 68.6631V70.4131H47L46.9375 66.9756L45.6376 66.9006L45.625 68.6631ZM64.75 67.1381C64.5126 67.2631 64.2126 67.5006 64.0876 67.6756C63.9251 67.8881 63.8376 68.2131 63.8251 68.6756C63.8125 69.1506 63.875 69.4756 64.0251 69.7131C64.1376 69.9006 64.4001 70.1506 64.5876 70.2631C64.7876 70.3881 65.1751 70.4756 65.5501 70.4631C65.9001 70.4631 66.3626 70.3631 66.5876 70.2506C66.8125 70.1381 67.0876 69.8506 67.2126 69.6256C67.4126 69.2131 67.4126 69.1756 67.2126 68.8756C67.0876 68.6881 66.8376 68.4506 66.6501 68.3256C66.4375 68.1881 66.075 68.1131 65.6625 68.1131C65.1375 68.1131 65.0375 68.0756 65.1625 67.9506C65.2375 67.8631 65.4626 67.7881 65.6501 67.7881C65.8376 67.8006 66.1126 67.8631 66.2751 67.9381C66.5 68.0506 66.6001 68.0131 66.8376 67.7756C66.9876 67.6131 67.1251 67.4381 67.1126 67.3881C67.1126 67.3381 66.8876 67.2131 66.6126 67.1131C66.3376 67.0131 65.9001 66.9256 65.6501 66.9256C65.3876 66.9256 64.9875 67.0256 64.75 67.1381ZM65.1501 69.1131C65.2126 68.9756 65.375 68.9256 65.5876 68.9506C65.8376 68.9756 65.9375 69.0631 65.9626 69.2631C65.9751 69.4631 65.9126 69.5756 65.7126 69.6256C65.5376 69.6631 65.3501 69.6131 65.2376 69.5006C65.1251 69.3881 65.0876 69.2381 65.1501 69.1131ZM73.25 68.0131C73.25 68.6881 73.1875 69.2006 73.0876 69.3506C72.9501 69.5381 72.8251 69.5631 72.4001 69.5006C71.875 69.4256 71.8626 69.4381 71.7376 69.8256C71.6626 70.0506 71.6126 70.2506 71.6126 70.2631C71.6126 70.2881 71.8376 70.3506 72.1126 70.4256C72.3876 70.4881 72.8251 70.5131 73.0876 70.4756C73.3376 70.4256 73.7126 70.3131 73.9001 70.2256C74.0876 70.1256 74.3 69.9256 74.3875 69.7631C74.475 69.6131 74.5376 68.9506 74.5501 68.2381V66.9881L73.25 66.9131V68.0131ZM56.1 67.5506C55.875 67.5881 55.5625 67.7131 55.4001 67.8131C55.25 67.9006 55.0375 68.1381 54.9375 68.3256C54.8251 68.5131 54.75 68.8131 54.75 68.9881C54.75 69.1631 54.8125 69.4506 54.9001 69.6256C54.9876 69.8006 55.25 70.0631 55.5 70.2006C55.7626 70.3631 56.1501 70.4631 56.5 70.4631C56.8376 70.4631 57.225 70.3631 57.5 70.2006C57.7375 70.0631 58 69.8006 58.0876 69.6256C58.1751 69.4506 58.25 69.1256 58.25 68.9256C58.25 68.6756 58.1126 68.4006 57.8376 68.1006C57.5876 67.8256 57.2625 67.6256 56.975 67.5631C56.725 67.5131 56.325 67.5131 56.1 67.5506ZM56.1875 68.5756C56.225 68.4756 56.375 68.4256 56.5375 68.4506C56.7625 68.4756 56.8125 68.5631 56.8125 68.9881C56.8125 69.4381 56.7751 69.4881 56.5 69.4881C56.2375 69.4881 56.175 69.4131 56.1376 69.1131C56.125 68.9006 56.1376 68.6631 56.1875 68.5756ZM51.25 67.8006C51 67.9381 50.7376 68.0506 50.6501 68.0506C50.5501 68.0506 50.5 68.2131 50.5 68.4881C50.5 68.8381 50.5375 68.9256 50.75 68.9256C50.8876 68.9256 51.1125 68.8631 51.25 68.8006C51.475 68.6881 51.5 68.7131 51.5 69.1131C51.5 69.5256 51.475 69.5506 51.0625 69.5506C50.6376 69.5506 50.625 69.5756 50.625 69.9881V70.4256H53.625C53.625 69.5881 53.5876 69.5506 53.25 69.5506H52.875L52.8125 67.6131C51.875 67.5631 51.5375 67.6381 51.25 67.8006ZM60.0375 67.6381C59.9625 67.7006 59.8125 68.1006 59.7001 68.5506C59.5876 69.0006 59.5 69.4631 59.5 69.5756C59.5 69.7756 59.6001 69.8006 60.3376 69.7631C61.0501 69.7381 61.1751 69.7631 61.2126 69.9506C61.2251 70.0756 61.1501 70.2131 61.0251 70.2506C60.9001 70.3006 60.6001 70.2506 60.3376 70.1631C59.9126 70.0006 59.8625 70.0006 59.625 70.2381C59.475 70.3756 59.3625 70.5381 59.3625 70.6131C59.3625 70.6756 59.5126 70.8131 59.7126 70.9006C59.9001 71.0006 60.3376 71.1006 60.6875 71.1381C61.175 71.1756 61.425 71.1256 61.875 70.9006C62.225 70.7131 62.475 70.4881 62.5625 70.2631C62.6459 70.0381 62.6459 69.8131 62.5625 69.5881C62.4875 69.4131 62.2375 69.1631 62 69.0256C61.75 68.9006 61.4001 68.8006 61.2126 68.8006C61.0251 68.8006 60.875 68.7381 60.875 68.6756C60.875 68.6006 61.175 68.5506 61.5625 68.5506C62.1376 68.5506 62.25 68.5131 62.3125 68.3006C62.3376 68.1631 62.3376 67.9381 62.3125 67.8006C62.25 67.5756 62.1376 67.5506 61.2126 67.5506C60.6501 67.5506 60.125 67.5881 60.0375 67.6381ZM68.5 69.1131V69.5506H70.625V68.6756H68.5V69.1131Z" fill="white"/>
</svg>
