<svg width="174" height="56" viewBox="0 0 174 56" fill="none" xmlns="http://www.w3.org/2000/svg">
<path d="M21.1702 54.0015V0.668213H23.7327L23.6927 53.9615L21.1702 54.0015Z" fill="white"/>
<path d="M16.045 24.1317V6.99453H18.6076V24.1317H16.045Z" fill="white"/>
<path d="M26.2152 24.1317H28.7778V6.99453H26.2152V24.1317Z" fill="white"/>
<path d="M11 24.1317V18.0856L11.008 12.0316L13.5225 12.0796L13.5626 24.1317H11Z" fill="white"/>
<path d="M30.6917 24.1397H33.1742V12.0476H30.6917V24.1397Z" fill="white"/>
<path d="M93.4824 17.2928L93.8187 16.5481L94.1471 15.8113H95.7166L95.1641 16.428C94.8678 16.7723 94.5475 17.1166 94.4674 17.1887C94.3553 17.2928 94.2111 17.3249 93.4824 17.2928Z" fill="white"/>
<path d="M5.87489 24.1317H8.43745V15.8834H5.87489V24.1317Z" fill="white"/>
<path d="M35.7447 24.1317V15.8834H38.3073V24.1317H35.7447Z" fill="white"/>
<path fill-rule="evenodd" clip-rule="evenodd" d="M65.094 17.6532C64.8298 17.6932 64.3974 17.8294 64.1331 17.9575C63.8288 18.1016 63.5085 18.3499 63.2682 18.6221C63.052 18.8544 62.7958 19.2308 62.6917 19.447C62.5956 19.6712 62.4674 20.0396 62.4194 20.2718C62.3713 20.504 62.3313 21.0245 62.3313 21.433C62.3313 21.8494 62.3873 22.3859 62.4514 22.6502C62.5235 22.9144 62.6756 23.3068 62.7958 23.523C62.9159 23.7393 63.1801 24.0676 63.3883 24.2598C63.6046 24.46 63.9809 24.7082 64.2292 24.8284C64.4854 24.9485 64.9419 25.0766 65.2542 25.1246C65.6306 25.1807 66.007 25.1807 66.4154 25.1246C66.7677 25.0766 67.2082 24.9485 67.4965 24.8123C67.7607 24.6842 68.1451 24.4119 68.3533 24.1957C68.5695 23.9875 68.8418 23.5871 68.9779 23.3148C69.1461 22.9625 69.2502 22.5861 69.3143 22.0496C69.3863 21.481 69.3863 21.1447 69.3223 20.6882C69.2662 20.3599 69.1461 19.8714 69.05 19.6071C68.9219 19.2868 68.7217 18.9745 68.4174 18.6622C68.1451 18.3659 67.7927 18.1016 67.4965 17.9575C67.2322 17.8294 66.7597 17.6932 66.4554 17.6532C66.1431 17.6051 65.8228 17.5731 65.7347 17.5811C65.6688 17.5811 65.4908 17.6035 65.2946 17.6282L65.1396 17.6476C65.1244 17.6495 65.1092 17.6513 65.094 17.6532ZM64.6937 19.2227C64.8698 19.1026 65.1421 18.9665 65.2943 18.9345C65.4464 18.8944 65.6866 18.8624 65.8148 18.8544C65.9429 18.8464 66.2312 18.8944 66.4554 18.9585C66.6796 19.0306 66.9759 19.1907 67.1361 19.3429C67.2882 19.495 67.4804 19.7353 67.5525 19.8874C67.6326 20.0396 67.7287 20.3839 67.7847 20.6482C67.8328 20.9204 67.8568 21.3769 67.8248 21.7052C67.8008 22.0336 67.6967 22.474 67.5926 22.6982C67.4965 22.9305 67.2642 23.2508 67.072 23.4189C66.8879 23.5951 66.5996 23.7633 66.4394 23.8113C66.2712 23.8514 65.9749 23.8914 65.7747 23.8914C65.5665 23.8914 65.2462 23.8113 65.014 23.6992C64.7978 23.5951 64.5335 23.427 64.4374 23.3228C64.3413 23.2187 64.1811 22.9465 64.077 22.7303C63.9169 22.3779 63.8929 22.2017 63.8929 21.3289C63.8929 20.3679 63.9009 20.3118 64.1331 19.8874C64.2692 19.6392 64.5095 19.3509 64.6937 19.2227Z" fill="white"/>
<path d="M50.5595 25.0125V17.7253H52.001V25.0125H50.5595Z" fill="white"/>
<path d="M53.7627 25.0125H55.1241C55.1161 20.8884 55.1481 19.7192 55.1801 19.7513C55.2122 19.7913 55.5325 20.9845 55.8848 22.3939L56.5335 24.9725L57.9669 25.0205C58.9599 21.1527 59.2882 19.9675 59.3443 19.8954C59.4244 19.7993 59.4404 20.3118 59.4484 22.3939V25.0125H60.8098V17.7253H58.5675C58.3433 18.6302 58.063 19.7112 57.7988 20.7122C57.5425 21.7132 57.3103 22.5301 57.2862 22.5301C57.2622 22.5381 56.9579 21.457 56.6056 20.1277L55.9649 17.7253H53.7627V25.0125Z" fill="white"/>
<path fill-rule="evenodd" clip-rule="evenodd" d="M70.8998 25.0125V17.7253H72.7577C73.7827 17.7253 74.8238 17.7653 75.064 17.8053C75.3043 17.8534 75.6406 17.9815 75.8008 18.0936C75.9689 18.1977 76.2011 18.438 76.3213 18.6221C76.4814 18.8624 76.5535 19.0866 76.5775 19.4069C76.5935 19.6472 76.5615 19.9915 76.4974 20.1677C76.4414 20.3439 76.2412 20.6402 75.7047 21.1687L75.9609 21.2968C76.105 21.3689 76.3053 21.505 76.4094 21.6011C76.5135 21.6972 76.6656 21.9054 76.7537 22.0736C76.8338 22.2338 76.9299 22.522 76.9539 22.7142C76.9859 22.9305 76.9539 23.2187 76.8738 23.515C76.7937 23.8113 76.6416 24.0916 76.4414 24.2998C76.2812 24.484 76.0009 24.7082 75.8248 24.8043C75.5205 24.9645 75.3763 24.9725 70.8998 25.0125ZM72.3413 20.6081V18.9265H73.3183C73.8628 18.9265 74.4394 18.9665 74.5996 19.0065C74.7677 19.0546 74.9599 19.1667 75.024 19.2628C75.088 19.3669 75.1441 19.5831 75.1441 19.7433C75.1441 19.9114 75.1041 20.1196 75.064 20.2077C75.024 20.2958 74.8798 20.424 74.7437 20.488C74.5675 20.5761 74.2232 20.6081 72.3413 20.6081ZM72.3413 23.8113L72.3493 22.8424V21.8814L74.9039 21.9295L75.1601 22.1937C75.3843 22.4179 75.4244 22.506 75.4244 22.8424C75.4244 23.1547 75.3843 23.2828 75.2242 23.451C75.1121 23.5631 74.8959 23.6912 74.7437 23.7313C74.5915 23.7793 73.9829 23.8113 72.3413 23.8113Z" fill="white"/>
<path d="M78.5074 25.0125H79.9489V17.7253H78.5074V25.0125Z" fill="white"/>
<path d="M88.2772 25.0125V17.7253H89.7186V25.0125H88.2772Z" fill="white"/>
<path fill-rule="evenodd" clip-rule="evenodd" d="M93.4744 17.9495C93.4264 18.0696 92.8097 19.6632 92.105 21.489C91.4003 23.3148 90.8077 24.8604 90.7917 24.9164C90.7677 24.9885 90.9519 25.0125 91.5365 25.0125H92.3213L92.8818 23.4109L95.8288 23.451L96.4133 24.9725L98.047 25.0125L95.124 17.7253C93.5625 17.7253 93.5545 17.7253 93.4744 17.9495ZM93.8027 20.9044C94.027 20.2798 94.2352 19.7192 94.2672 19.6552C94.2992 19.5911 94.3473 19.5751 94.3713 19.6151C94.4033 19.6552 94.6276 20.2238 95.3082 22.0896L94.3713 22.1056C93.8588 22.1216 93.4344 22.1136 93.4264 22.0896C93.4103 22.0656 93.5865 21.5371 93.8027 20.9044Z" fill="white"/>
<path fill-rule="evenodd" clip-rule="evenodd" d="M99.1681 25.0125L99.1841 17.7172L103.621 17.7653L104.093 18.0055C104.453 18.1897 104.622 18.3419 104.806 18.6382C105.022 18.9825 105.054 19.1267 105.078 19.6792C105.102 20.2478 105.078 20.3839 104.902 20.7523C104.75 21.0566 104.59 21.2328 104.309 21.4089C104.101 21.5451 103.821 21.6732 103.693 21.6972C103.556 21.7293 103.428 21.7613 103.388 21.7773C103.356 21.8013 103.556 22.0336 103.837 22.3138C104.133 22.6101 104.606 23.2348 104.99 23.8514C105.35 24.4279 105.647 24.9244 105.655 24.9565C105.655 24.9885 105.27 25.0125 103.933 25.0125L103.212 23.9234C102.812 23.3228 102.355 22.6742 102.187 22.482C101.995 22.2498 101.787 22.1056 101.587 22.0496C101.426 22.0095 101.154 21.9695 100.69 21.9695V25.0125H99.1681ZM100.69 20.8484C101.651 20.8404 102.219 20.8083 102.572 20.7683C103.116 20.7122 103.236 20.6722 103.388 20.496C103.524 20.3359 103.572 20.1837 103.572 19.8874C103.572 19.5751 103.524 19.439 103.38 19.2628C103.204 19.0706 103.116 19.0386 102.451 18.9825C102.051 18.9505 101.49 18.9265 101.202 18.9265H100.69V20.8484Z" fill="white"/>
<path d="M106.776 25.0045H108.297V17.7172H106.776V25.0045Z" fill="white"/>
<path fill-rule="evenodd" clip-rule="evenodd" d="M110.676 21.505C111.024 20.6041 111.349 19.762 111.598 19.1182C111.868 18.4172 112.048 17.9515 112.069 17.9014C112.133 17.7333 112.181 17.7172 113.703 17.7253L115.128 21.3048C115.905 23.2748 116.545 24.9164 116.545 24.9485C116.545 24.9805 116.193 25.0045 114.984 25.0045L114.399 23.443L111.46 23.4029L110.884 24.9645L110.107 24.9885C109.683 24.9965 109.338 24.9885 109.346 24.9725C109.349 24.9652 109.406 24.8162 109.505 24.5592L109.509 24.5479L109.51 24.5448L109.511 24.5421C109.739 23.9495 110.179 22.8071 110.676 21.505ZM112.838 19.6552C112.806 19.7192 112.581 20.2958 112.341 20.9445L111.901 22.1297H113.903C113.582 21.2888 113.382 20.7443 113.246 20.3679C113.11 19.9915 112.974 19.6552 112.95 19.6151C112.918 19.5751 112.87 19.5911 112.838 19.6552Z" fill="white"/>
<path d="M81.7907 25.0045H86.9159V23.8033H83.2322V17.7973H81.7907V25.0045Z" fill="white"/>
<path d="M0.189209 31.0906V25.4049L15.5245 25.445L16.005 25.6852C16.2693 25.8133 16.7097 26.1417 16.99 26.4059C17.2703 26.6702 17.6226 27.0546 17.7668 27.2468C17.9109 27.447 18.1752 27.8954 18.3514 28.2478C18.5275 28.6001 18.7678 29.2007 18.8719 29.5691C18.984 29.9455 19.1121 30.6021 19.1602 31.0345C19.2162 31.5631 19.2242 32.0355 19.1682 32.516C19.1281 32.9004 19.016 33.469 18.9199 33.7733C18.8238 34.0856 18.6476 34.534 18.5275 34.7743C18.3994 35.0225 18.1351 35.447 17.5666 36.2157L17.7668 36.2958C17.8709 36.3439 17.991 36.3759 18.023 36.3759C18.0551 36.3759 18.2633 36.528 18.4795 36.7202C18.6877 36.9044 18.96 37.2247 19.0721 37.4169C19.1842 37.6171 19.3443 37.9935 19.4244 38.2578C19.5125 38.522 19.6326 39.0826 19.7047 39.499C19.8088 40.1236 19.8328 41.1487 19.8889 50.1497H13.6426V39.3388H6.51553V50.1497H0.189209V34.2938L13.3864 34.2538L13.6426 34.0135C13.7788 33.8854 13.947 33.6532 14.011 33.493C14.0751 33.3409 14.1231 32.9805 14.1231 32.6922C14.1231 32.3158 14.0751 32.0756 13.9389 31.8193C13.8428 31.6271 13.6587 31.3869 13.5305 31.2988C13.3143 31.1387 13.2262 31.1306 0.189209 31.0906Z" fill="white"/>
<path fill-rule="evenodd" clip-rule="evenodd" d="M24.7738 31.1707L24.8129 31.1707C37.3068 31.1787 37.5549 31.1789 37.8669 31.3308C38.0751 31.4269 38.2592 31.6031 38.3874 31.8273C38.5475 32.1076 38.5876 32.2838 38.5876 32.7322C38.5876 33.1807 38.5475 33.3649 38.3874 33.6532C38.2753 33.8454 38.059 34.0936 37.9069 34.1977L37.6266 34.3819L24.8538 34.3739V50.3899L39.2282 50.3498C40.2212 50.0055 40.7577 49.7492 41.0701 49.5651C41.3744 49.3809 41.8628 49.0205 42.1431 48.7482C42.4234 48.484 42.8558 47.9635 43.1041 47.5871C43.3523 47.2107 43.6807 46.6181 43.8248 46.2658C43.9689 45.9134 44.1611 45.3529 44.2492 45.0245C44.3613 44.6001 44.4254 44.0716 44.4494 43.2227C44.4815 42.2057 44.4654 41.9094 44.3213 41.2608C44.2092 40.7803 44.009 40.2117 43.7607 39.6992C43.4644 39.0906 43.2322 38.7543 42.7838 38.2658C42.4554 37.9214 41.975 37.489 41.7107 37.3128C41.4464 37.1366 41.2222 36.9845 41.2062 36.9685C41.1982 36.9525 41.3423 36.7523 41.5345 36.52C41.7267 36.2878 42.007 35.9194 42.1511 35.6952C42.3033 35.479 42.5435 35.0466 42.6877 34.7342C42.8318 34.4299 43.024 33.8854 43.1201 33.533C43.2642 33.0125 43.2963 32.6842 43.2963 31.7312C43.2963 30.8263 43.2562 30.442 43.1361 29.9695C43.04 29.6412 42.8799 29.1367 42.7597 28.8484C42.6476 28.5601 42.4314 28.1357 42.2873 27.9034C42.1511 27.6712 41.8869 27.3028 41.7107 27.0866C41.5345 26.8704 41.1742 26.5341 40.9099 26.3339C40.6456 26.1337 40.2692 25.9174 40.069 25.8454C39.7567 25.7413 38.7317 25.7252 32.2372 25.7252H24.7738V31.1707ZM30.4675 42.8223V46.2257C34.96 46.2257 35.4645 46.2097 35.8328 46.0976C36.0731 46.0255 36.4174 45.8894 36.5936 45.7853C36.7698 45.6812 37.0981 45.4009 37.3303 45.1527C37.5626 44.9044 37.8428 44.52 37.9469 44.2878C38.059 44.0556 38.1872 43.6311 38.2352 43.3428C38.2993 42.9585 38.2993 42.6942 38.2352 42.3018C38.1792 42.0215 38.051 41.5891 37.9389 41.3408C37.8268 41.1006 37.5305 40.6922 37.2823 40.4359C37.002 40.1396 36.6416 39.8754 36.3133 39.7152L35.7928 39.459L30.4755 39.4109L30.4675 42.8223Z" fill="white"/>
<path d="M50.1591 35.0946V30.6902L54.6196 30.6982C57.078 30.7062 59.8808 30.7302 60.8498 30.7623L60.856 30.7625C62.6036 30.8183 62.6121 30.8186 63.052 31.0506C63.2922 31.1867 63.6766 31.483 63.9089 31.7152C64.1411 31.9475 64.4774 32.3799 64.6456 32.6762C64.8218 32.9725 65.054 33.485 65.1661 33.8133C65.2782 34.1417 65.3984 34.7182 65.4464 35.0946C65.4944 35.527 65.4944 35.9995 65.4464 36.3759C65.4064 36.7042 65.2943 37.2087 65.1982 37.497C65.1021 37.7853 64.8298 38.2978 64.1731 39.2588L64.5095 39.4109C64.7017 39.491 64.9819 39.6992 65.1421 39.8674C65.2943 40.0436 65.4944 40.3799 65.5905 40.6201C65.6786 40.8604 65.8068 41.3328 65.8628 41.6612C65.9509 42.1176 65.9669 42.8063 65.9349 44.504C65.9109 45.7372 65.8949 47.483 65.8949 48.3879C65.8949 49.2928 65.9189 50.1496 66.015 50.55H60.9699V41.501H55.2042L55.1641 50.51L50.2392 50.55V37.6572H60.6496L60.9059 37.4409C61.042 37.3208 61.2022 37.1046 61.2662 36.9605C61.3223 36.8163 61.3703 36.536 61.3703 36.3358C61.3703 36.1356 61.3063 35.8474 61.2262 35.6792C61.1541 35.519 60.9779 35.3188 60.8498 35.2388C60.6256 35.1026 60.2812 35.0946 50.1591 35.0946Z" fill="white"/>
<path fill-rule="evenodd" clip-rule="evenodd" d="M92.2892 32.8844L92.2812 35.0946C102.716 35.0946 102.812 35.0946 103.028 35.2548C103.156 35.3429 103.308 35.535 103.38 35.6792C103.452 35.8233 103.516 36.1196 103.516 36.3358C103.516 36.5841 103.452 36.8644 103.348 37.0566C103.26 37.2327 103.076 37.4409 102.94 37.521C102.708 37.6492 102.299 37.6572 97.5265 37.6572H92.3613V50.55C102.547 50.55 103.629 50.526 104.093 50.4299C104.397 50.3659 104.926 50.1817 105.254 50.0135C105.687 49.7973 106.015 49.5571 106.455 49.1166C106.784 48.7803 107.176 48.3078 107.312 48.0676C107.456 47.8273 107.665 47.4109 107.769 47.1466C107.881 46.8824 108.033 46.4339 108.113 46.1456C108.217 45.7533 108.257 45.3448 108.249 44.504C108.249 43.511 108.225 43.3108 108.033 42.7422C107.913 42.3899 107.681 41.8774 107.52 41.5891C107.352 41.3088 107.032 40.9004 106.816 40.6682C106.591 40.4439 106.223 40.1316 105.999 39.9795L105.582 39.6992C106.199 39.0185 106.519 38.5461 106.696 38.2177C106.864 37.8894 107.08 37.3288 107.176 36.9765C107.283 36.5494 107.336 36.0823 107.336 35.5751C107.336 35.0786 107.28 34.5901 107.176 34.1737C107.088 33.8213 106.872 33.2368 106.696 32.8764C106.471 32.4199 106.223 32.0516 105.871 31.6992C105.542 31.3549 105.214 31.1146 104.894 30.9705L104.413 30.7463L92.3052 30.6662L92.2892 32.8844ZM96.9259 47.1947C101.178 47.1547 101.218 47.1466 101.651 46.9464C101.891 46.8343 102.251 46.5861 102.451 46.3859C102.644 46.1937 102.9 45.8333 103.012 45.5931C103.18 45.2247 103.212 45.0325 103.212 44.4319C103.212 43.7593 103.196 43.6792 102.932 43.1987C102.78 42.9184 102.507 42.5581 102.331 42.4059C102.155 42.2458 101.811 42.0295 101.571 41.9174C101.138 41.7172 101.082 41.7092 99.04 41.6772L96.9419 41.6532L96.9259 47.1947Z" fill="white"/>
<path d="M67.08 35.1427C67.072 34.1336 67.08 33.2528 67.096 33.1967C67.1201 33.1246 67.6166 33.1006 71.5325 33.1006V37.0245L67.088 36.9845L67.08 35.1427Z" fill="white"/>
<path fill-rule="evenodd" clip-rule="evenodd" d="M79.3403 37.2728C79.076 37.3128 78.5955 37.4169 78.2592 37.505C77.9309 37.6011 77.3223 37.8333 76.8979 38.0335C76.4814 38.2337 75.9209 38.5461 75.6566 38.7382C75.3923 38.9304 74.9119 39.3709 74.5755 39.7232C74.2472 40.0756 73.8628 40.5561 73.7187 40.7963C73.5745 41.0285 73.3663 41.461 73.2462 41.7493C73.1341 42.0375 72.9819 42.518 72.9179 42.8303C72.8378 43.2147 72.8138 43.6552 72.8378 44.2317C72.8698 44.8243 72.9419 45.2487 73.078 45.6732C73.1901 46.0015 73.3022 46.3378 73.3263 46.4099C73.3743 46.538 73.3022 46.5541 72.4934 46.5541H71.6126V37.7453L67.1681 37.7853C67.1361 46.7943 67.1601 48.7803 67.2162 49.1567C67.2642 49.461 67.3603 49.8213 67.4404 49.9414C67.5125 50.0696 67.7127 50.2457 67.8888 50.3418C68.2092 50.51 68.2892 50.518 73.8948 50.5821C77.0258 50.6141 80.1571 50.6461 80.8618 50.6542C81.9829 50.6542 82.2392 50.6301 82.9038 50.462C83.3283 50.3498 83.9769 50.1176 84.3453 49.9414C84.7217 49.7653 85.2662 49.469 85.5465 49.2768C85.8348 49.0846 86.2832 48.7242 86.5395 48.476C86.7957 48.2357 87.1641 47.8193 87.3483 47.5551C87.5405 47.2908 87.8047 46.8503 87.9409 46.5701C88.077 46.2978 88.2692 45.7933 88.3653 45.449C88.5014 44.9845 88.5415 44.6081 88.5415 43.9515C88.5415 43.2788 88.5014 42.9184 88.3573 42.4299C88.2612 42.0776 88.037 41.517 87.8688 41.1887C87.7006 40.8604 87.3563 40.3398 87.1161 40.0436C86.8678 39.7473 86.4434 39.3148 86.1631 39.0826C85.8748 38.8504 85.3863 38.514 85.058 38.3218C84.7377 38.1376 84.1211 37.8574 83.6886 37.7052C83.2562 37.5531 82.5755 37.3689 82.1671 37.3048C81.7587 37.2407 81.062 37.1847 80.6216 37.1927C80.1811 37.2007 79.6046 37.2327 79.3403 37.2728ZM78.9079 41.5491C79.06 41.469 79.3883 41.3328 79.6286 41.2608C79.8688 41.1807 80.3253 41.1166 80.6296 41.1086C80.9419 41.1086 81.4064 41.1647 81.6706 41.2287C81.9349 41.3008 82.3113 41.453 82.5115 41.5651C82.7117 41.6852 82.9999 41.8934 83.1521 42.0295C83.3043 42.1737 83.5605 42.518 83.7127 42.7983C83.9609 43.2628 83.9929 43.3669 83.9929 43.9515C83.9849 44.496 83.9529 44.6562 83.7527 45.0646C83.6246 45.3208 83.3523 45.6812 83.1521 45.8654C82.9519 46.0576 82.6476 46.2818 82.4714 46.3699C82.2952 46.458 81.9349 46.6021 81.6706 46.6742C81.3183 46.7783 81.006 46.8023 80.4694 46.7783C79.8528 46.7462 79.6606 46.6982 79.1481 46.458C78.7957 46.2978 78.4034 46.0335 78.2031 45.8253C78.003 45.6331 77.7547 45.2888 77.6426 45.0726C77.4584 44.7282 77.4264 44.5761 77.4264 43.9515C77.4264 43.3268 77.4584 43.1747 77.6426 42.8303C77.7547 42.6061 78.027 42.2618 78.2432 42.0616C78.4514 41.8614 78.7557 41.6291 78.9079 41.5491Z" fill="white"/>
<path fill-rule="evenodd" clip-rule="evenodd" d="M162.623 37.6732C163.024 37.537 163.632 37.3689 163.985 37.3048C164.425 37.2247 164.994 37.1927 165.787 37.2167C166.692 37.2407 167.116 37.2888 167.709 37.449C168.133 37.5531 168.742 37.7613 169.07 37.8974C169.406 38.0415 169.959 38.3459 170.311 38.5781C170.663 38.8023 171.192 39.2267 171.472 39.515C171.761 39.7953 172.161 40.2838 172.369 40.5881C172.577 40.8924 172.85 41.4209 172.986 41.7493C173.114 42.0776 173.266 42.5661 173.322 42.8303C173.378 43.1106 173.402 43.6872 173.378 44.2317C173.354 44.9765 173.298 45.2808 173.106 45.8333C172.978 46.2097 172.698 46.8023 172.473 47.1547C172.257 47.507 171.825 48.0435 171.512 48.3559C171.208 48.6602 170.688 49.0926 170.351 49.3168C170.023 49.533 169.446 49.8453 169.07 50.0055C168.702 50.1657 168.069 50.3819 167.669 50.486C167.052 50.6381 166.78 50.6622 165.707 50.6542C165.026 50.6461 158.964 50.6221 140.001 50.5581V41.7493H137.278V50.5581L122.904 50.494L122.143 50.2938C121.727 50.1897 121.118 49.9735 120.782 49.8213C120.453 49.6692 119.989 49.4209 119.741 49.2608C119.5 49.1086 119.052 48.7482 118.756 48.468C118.451 48.1877 118.043 47.7392 117.859 47.475C117.667 47.2107 117.402 46.7462 117.266 46.4499C117.13 46.1537 116.962 45.6652 116.898 45.3689C116.826 45.0726 116.77 44.504 116.77 44.1116C116.77 43.7112 116.826 43.1426 116.898 42.8463C116.962 42.5501 117.13 42.0616 117.266 41.7653C117.402 41.469 117.667 41.0125 117.859 40.7483C118.043 40.484 118.427 40.0516 118.716 39.7873C118.996 39.515 119.532 39.1146 119.901 38.8824C120.277 38.6502 120.894 38.3539 121.262 38.2177C121.639 38.0816 122.215 37.9134 122.543 37.8414C123.056 37.7212 123.657 37.7052 129.791 37.7052L129.831 46.7142H131.993L132.033 37.7853H137.639C141.859 37.7853 143.316 37.8093 143.524 37.8814C143.685 37.9374 143.901 38.0816 144.021 38.2017C144.133 38.3218 144.277 38.5541 144.333 38.7062C144.421 38.9224 144.445 39.8433 144.485 46.7142H145.566C146.167 46.7142 146.648 46.6982 146.648 46.6742C146.648 46.6502 146.535 46.2978 146.391 45.8894C146.159 45.2167 146.135 45.0646 146.135 44.1517C146.127 43.3188 146.159 43.0466 146.319 42.5501C146.415 42.2217 146.632 41.7172 146.784 41.4289C146.944 41.1406 147.24 40.6922 147.448 40.4279C147.665 40.1637 148.009 39.7953 148.225 39.6191C148.441 39.4429 148.794 39.1707 149.01 39.0265C149.234 38.8744 149.699 38.6181 150.051 38.45C150.403 38.2898 150.948 38.0816 151.252 38.0015C151.564 37.9134 152.157 37.8013 152.573 37.7453C153.022 37.6892 154.095 37.6652 157.018 37.7052V41.3889L154.856 41.4289C152.846 41.469 152.67 41.485 152.253 41.6532C152.013 41.7493 151.693 41.9334 151.54 42.0536C151.388 42.1737 151.172 42.3579 151.076 42.47C150.972 42.5821 150.788 42.8464 150.668 43.0706C150.491 43.4069 150.459 43.5671 150.459 44.1116C150.459 44.6321 150.499 44.8243 150.66 45.1446C150.764 45.3689 151.02 45.7052 151.212 45.8974C151.412 46.0976 151.789 46.3619 152.533 46.7142H155.4C156.978 46.7142 158.259 46.6982 158.259 46.6742C158.259 46.6502 158.155 46.3138 158.027 45.9294C157.891 45.545 157.755 44.9444 157.723 44.5921C157.691 44.2397 157.683 43.6792 157.715 43.3509C157.747 43.0225 157.859 42.462 157.971 42.1096C158.083 41.7573 158.315 41.2448 158.483 40.9645C158.644 40.6922 158.964 40.2437 159.18 39.9715C159.404 39.6992 159.837 39.2748 160.141 39.0345C160.453 38.7863 160.974 38.4339 161.302 38.2498C161.639 38.0656 162.231 37.8093 162.623 37.6732ZM164.593 41.2127C164.393 41.2688 164.057 41.4049 163.841 41.509C163.624 41.6211 163.272 41.8774 163.056 42.0856C162.848 42.2938 162.575 42.6782 162.455 42.9264C162.287 43.2868 162.247 43.511 162.247 43.9515C162.247 44.3759 162.295 44.6161 162.447 44.9525C162.551 45.1927 162.752 45.521 162.888 45.6732C163.024 45.8253 163.32 46.0736 163.56 46.2257C163.801 46.3859 164.201 46.5701 164.457 46.6502C164.722 46.7302 165.17 46.7943 165.538 46.7943C165.923 46.7943 166.347 46.7382 166.676 46.6421C166.98 46.546 167.404 46.3378 167.677 46.1296C167.941 45.9374 168.277 45.6091 168.421 45.3849C168.565 45.1687 168.726 44.8484 168.774 44.6722C168.814 44.496 168.846 44.0956 168.822 43.7913C168.806 43.3989 168.734 43.1106 168.597 42.8303C168.485 42.6141 168.245 42.2778 168.061 42.0936C167.869 41.9014 167.532 41.6532 167.3 41.533C167.068 41.4209 166.7 41.2768 166.475 41.2127C166.259 41.1567 165.827 41.1086 165.514 41.1166C165.21 41.1166 164.794 41.1647 164.593 41.2127ZM122.391 41.9174C122.591 41.8053 122.936 41.6452 123.152 41.5731C123.392 41.493 123.801 41.4289 124.153 41.4289C124.481 41.4289 124.874 41.453 125.282 41.5491V46.6742L125.018 46.7302C124.874 46.7703 124.505 46.7943 124.193 46.7943C123.889 46.7943 123.432 46.7382 123.192 46.6662C122.952 46.5941 122.591 46.4339 122.391 46.3058C122.191 46.1857 121.919 45.9615 121.783 45.8173C121.639 45.6732 121.454 45.4089 121.358 45.2327C121.27 45.0566 121.166 44.7523 121.126 44.5521C121.086 44.3519 121.078 44.0075 121.11 43.7913C121.142 43.5671 121.246 43.2387 121.342 43.0465C121.438 42.8624 121.631 42.5741 121.775 42.4219C121.919 42.2618 122.191 42.0375 122.391 41.9174Z" fill="white"/>
<path d="M110.852 37.8333C110.66 37.8734 110.403 37.9775 110.291 38.0576C110.187 38.1376 110.019 38.3378 109.931 38.514C109.779 38.8183 109.771 39.0025 109.755 44.6882L109.731 50.5581H114.215V41.7493H116.217L116.177 37.7853C112.333 37.7613 111.052 37.7933 110.852 37.8333Z" fill="white"/>
<path d="M5.90692 53.9615L5.8909 52.6962L5.86688 51.4389H8.42944V54.0015L5.90692 53.9615Z" fill="white"/>
<path d="M11 53.9935L13.5225 53.9534L13.5546 51.4309H11V53.9935Z" fill="white"/>
<path d="M16.045 53.9935V51.4309H18.6076V53.9935H16.045Z" fill="white"/>
<path d="M26.2152 53.9935H28.7778V51.4309H26.2152V53.9935Z" fill="white"/>
<path d="M30.6997 53.9935V51.4309H33.1822V53.9935H30.6997Z" fill="white"/>
<path d="M35.7447 53.9935H38.3073V51.4309H35.7447V53.9935Z" fill="white"/>
</svg>
